# xmcd
#
# Track frame offsets:
#	150
#	12329
#	29688
#	48843
#	56923
#	74588
#	89062
#	104348
#	119612
#	138918
#	158491
#	174246
#	193529
#	205876
#	226046
#	250406
#	263974
#	277383
#	297544
#	317049
#
# Disc length: 4473 seconds
#
# Revision: 0
# Processed by: cddbd v1.5.2PL0 Copyright (c) Steve Scherf et al.
# Submitted via: dBpowerAMP V4.0
#
DISCID=35117714
DTITLE=Neko Case - 2001-10-07 Iota Club
DYEAR=1900
DGENRE=Country Rock
TTITLE0=Andy
TTITLE1=Set Out Running
TTITLE2=Favorite
TTITLE3=Ruin Everything
TTITLE4=I'll Be Around
TTITLE5=Just To Remember
TTITLE6=Knock Land
TTITLE7=In California
TTITLE8=Alone And Forsaken
TTITLE9=There Is No Tune
TTITLE10=Twist The Knife
TTITLE11=Pretty Girls
TTITLE12=Buckets Of Rain
TTITLE13=Furnace Room Lullaby
TTITLE14=Wayfaring Stranger
TTITLE15=Lady Pilot
TTITLE16=You Belong To Me
TTITLE17=Make Your Bed
TTITLE18=Thrice All-American
TTITLE19=Porchllight
EXTD=
EXTT0=
EXTT1=
EXTT2=
EXTT3=
EXTT4=
EXTT5=
EXTT6=
EXTT7=
EXTT8=
EXTT9=
EXTT10=
EXTT11=
EXTT12=
EXTT13=
EXTT14=
EXTT15=
EXTT16=
EXTT17=
EXTT18=
EXTT19=
PLAYORDER=
